<svg width="41" height="41" viewBox="0 0 41 41" fill="none" xmlns="http://www.w3.org/2000/svg">
<path d="M24.8848 4.03113C24.2196 4.03113 23.2441 4.22261 22.4056 4.82526C21.5188 5.46621 20.8536 6.52438 20.8536 8.06225V10.5878C20.8606 10.9398 20.9698 11.2823 21.1681 11.5734C21.3575 11.8374 21.684 12.0974 22.3633 12.0974C23.0425 12.0974 23.3691 11.8374 23.5585 11.5734C23.7568 11.2823 23.866 10.9398 23.8729 10.5878C23.8729 10.3205 23.9791 10.0641 24.1681 9.87514C24.3571 9.68615 24.6134 9.57997 24.8807 9.57997C25.148 9.57997 25.4043 9.68615 25.5933 9.87514C25.7823 10.0641 25.8885 10.3205 25.8885 10.5878C25.8885 11.1703 25.7232 12.0188 25.1952 12.7505C24.6308 13.5365 23.6996 14.113 22.3633 14.113C21.7183 14.113 21.164 13.9779 20.7025 13.7502C20.4142 15.9915 19.5738 19.0027 17.1168 21.4577C14.9279 23.6486 13.8536 26.3615 13.3255 28.4779C13.0434 29.6119 12.8679 30.7699 12.8015 31.9366L12.7934 32.1583V32.2208L12.7914 32.2409V32.249L12.7873 32.3075C12.7847 32.3652 12.7746 32.4479 12.7571 32.5554C12.7164 32.8172 12.6362 33.0714 12.5193 33.3092C12.3968 33.5729 12.2053 33.7985 11.965 33.9622C11.7231 34.1235 11.3563 34.2646 10.7758 34.2646C9.92975 34.2646 9.10514 33.9984 8.41878 33.5037C7.73241 33.009 7.2191 32.3108 6.95156 31.5082C6.68401 30.7056 6.67578 29.8391 6.92805 29.0315C7.18032 28.2239 7.68029 27.5162 8.35714 27.0085C8.46302 26.929 8.55219 26.8294 8.61957 26.7154C8.68694 26.6014 8.73121 26.4752 8.74983 26.3441C8.76845 26.213 8.76107 26.0795 8.7281 25.9513C8.69513 25.823 8.63723 25.7025 8.55769 25.5966C8.47815 25.4908 8.37854 25.4016 8.26454 25.3342C8.15054 25.2668 8.02438 25.2226 7.89327 25.204C7.76217 25.1853 7.62868 25.1927 7.50042 25.2257C7.37217 25.2586 7.25166 25.3166 7.14579 25.3961C6.13037 26.1577 5.38036 27.2194 5.002 28.431C4.62365 29.6426 4.63615 30.9425 5.03773 32.1465C5.43931 33.3506 6.2096 34.3978 7.23947 35.1397C8.26933 35.8816 9.50655 36.2806 10.7758 36.2801H26.9003V35.2724C26.9003 34.4561 26.5214 33.1641 25.4229 32.5876C24.9437 32.3481 24.4124 32.2317 23.877 32.249H21.8614C21.5941 32.249 21.3378 32.1428 21.1488 31.9538C20.9598 31.7648 20.8536 31.5085 20.8536 31.2412C20.8536 30.9739 20.9598 30.7176 21.1488 30.5286C21.3378 30.3396 21.5941 30.2334 21.8614 30.2334H23.877C24.2317 30.2334 24.5676 30.2603 24.8848 30.3141V25.1945C24.8848 24.9273 24.9909 24.6709 25.1799 24.4819C25.3689 24.2929 25.6253 24.1868 25.8925 24.1868C26.1598 24.1868 26.4162 24.2929 26.6052 24.4819C26.7941 24.6709 26.9003 24.9273 26.9003 25.1945V31.1364C28.4926 32.2853 28.9159 34.196 28.9159 35.2724V36.2801H33.9548C34.2221 36.2801 34.4784 36.174 34.6674 35.985C34.8564 35.796 34.9626 35.5396 34.9626 35.2724C34.9626 33.5188 34.366 32.2027 33.34 31.3481C32.6465 30.7895 31.8138 30.4306 30.9314 30.31V14.1089H31.9392C32.7411 14.1089 33.5101 13.7904 34.0771 13.2234C34.644 12.6564 34.9626 11.8874 34.9626 11.0856V8.63266C34.9625 8.28487 34.8725 7.94301 34.7012 7.64032C34.5299 7.33764 34.2832 7.08443 33.985 6.90532L30.3913 4.74867C29.6082 4.27907 28.7123 4.03105 27.7993 4.03113H24.8848Z" fill="#545454"/>
</svg>
