<svg width="41" height="41" viewBox="0 0 41 41" fill="none" xmlns="http://www.w3.org/2000/svg">
<path d="M26.8773 7.99027L36.3144 17.4274C37.2685 18.3813 37.8853 19.6205 38.0711 20.9568C38.2569 22.2931 38.0016 23.6535 37.3439 24.8315C36.6863 26.0096 35.6622 26.9408 34.4272 27.4839C33.1922 28.027 31.8137 28.1523 30.501 27.8407V28.1963C30.5012 28.653 30.4114 29.1053 30.2367 29.5273C30.0621 29.9493 29.806 30.3327 29.4831 30.6557C29.1603 30.9787 28.7769 31.235 28.355 31.4098C27.9331 31.5846 27.4808 31.6746 27.0241 31.6746H23.0132V30.4854C23.0139 29.2753 22.5346 28.1144 21.6803 27.2574C20.826 26.4005 19.6666 25.9174 18.4566 25.9144H16.1674C15.8811 25.9144 15.6064 26.0281 15.4039 26.2306C15.2014 26.4331 15.0877 26.7078 15.0877 26.9942C15.0877 27.2805 15.2014 27.5552 15.4039 27.7577C15.6064 27.9602 15.8811 28.0739 16.1674 28.0739H18.4566C19.7767 28.0739 20.8551 29.1537 20.8551 30.484V31.6731H11.3503C10.8948 31.673 10.4439 31.5827 10.0234 31.4077C9.60296 31.2326 9.22127 30.9761 8.90029 30.653C8.57931 30.3299 8.32537 29.9465 8.1531 29.5249C7.98082 29.1032 7.8936 28.6517 7.89644 28.1963V23.6613C7.89644 23.3253 7.91708 22.9942 7.95835 22.6679C7.19687 22.7123 6.43792 22.5455 5.76529 22.1858C5.09267 21.8261 4.53252 21.2875 4.14669 20.6295C3.76086 19.9715 3.56436 19.2197 3.57888 18.457C3.59339 17.6944 3.81837 16.9506 4.22896 16.3078C4.63956 15.6649 5.2198 15.1481 5.90564 14.8142C6.59147 14.4804 7.35622 14.3425 8.11545 14.4159C8.87469 14.4893 9.59888 14.7711 10.2081 15.2301C10.8173 15.6891 11.2878 16.3075 11.5676 17.0171C12.8058 16.2437 14.2368 15.8346 15.6967 15.8366H22.6777C23.6948 15.8346 24.7025 16.0322 25.6435 16.4182C25.9271 15.9402 26.2741 15.5328 26.6801 15.1153L23.2162 11.6514C22.9758 11.411 22.7851 11.1256 22.655 10.8115C22.5249 10.4974 22.4579 10.1608 22.4579 9.82083C22.4579 9.13424 22.7307 8.47577 23.2162 7.99027C23.7017 7.50477 24.3601 7.23203 25.0467 7.23203C25.7333 7.23203 26.3918 7.50477 26.8773 7.99027Z" fill="#545454"/>
</svg>
