<svg width="41" height="41" viewBox="0 0 41 41" fill="none" xmlns="http://www.w3.org/2000/svg">
<path d="M10.7154 36.2801H26.9003V33.2568C26.9003 31.9204 26.3694 30.6387 25.4245 29.6937C24.4795 28.7488 23.1978 28.2179 21.8614 28.2179H19.8459C19.5786 28.2179 19.3222 28.1117 19.1333 27.9227C18.9443 27.7337 18.8381 27.4774 18.8381 27.2101C18.8381 26.9428 18.9443 26.6865 19.1333 26.4975C19.3222 26.3085 19.5786 26.2023 19.8459 26.2023H21.8614C23.7324 26.2023 25.5267 26.9456 26.8497 28.2685C28.1727 29.5915 28.9159 31.3858 28.9159 33.2568V36.2801H29.4198C30.3711 36.2801 31.2338 35.8952 31.8586 35.2724H31.9392V35.1897C32.5444 34.55 32.88 33.702 32.8765 32.8214V17.483C36.1215 17.354 38.0625 13.7542 36.3291 10.9566L35.3173 9.324C34.9343 8.70536 34.3996 8.19478 33.764 7.84064C33.1284 7.4865 32.4129 7.30054 31.6853 7.30037H28.7929V6.01847C28.7929 5.75749 28.7415 5.49906 28.6417 5.25795C28.5418 5.01683 28.3954 4.79775 28.2109 4.61321C28.0263 4.42867 27.8072 4.28228 27.5661 4.18241C27.325 4.08253 27.0666 4.03113 26.8056 4.03113C26.1584 4.03139 25.5177 4.15912 24.9199 4.40702C24.3221 4.65493 23.779 5.01815 23.3215 5.47595C22.8641 5.93374 22.5013 6.47716 22.2539 7.07516C22.0065 7.67316 21.8793 8.31403 21.8796 8.9612V15.927C19.3037 16.1809 17.3587 17.3983 15.9296 19.1156C15.0428 20.1798 14.3595 21.4295 13.8334 22.7396C13.3759 23.6667 13.0554 24.6725 12.8982 25.7327L12.872 25.8516C12.3157 28.234 12.1202 30.6043 12.0597 32.3659C12.0356 33.1197 12.0356 33.7687 12.0436 34.2646H10.7154C9.941 34.2646 9.1835 34.0384 8.53602 33.6137C7.88853 33.1889 7.3793 32.5842 7.07093 31.8739C6.76256 31.1636 6.66851 30.3786 6.80034 29.6156C6.93217 28.8525 7.28413 28.1446 7.81295 27.5789L9.66726 25.5896C10.9448 24.2186 11.6406 22.4055 11.6083 20.5318C11.576 18.6582 10.818 16.8701 9.49393 15.544L7.67387 13.724C7.58091 13.6277 7.4697 13.5509 7.34675 13.4981C7.2238 13.4453 7.09156 13.4175 6.95774 13.4163C6.82393 13.4152 6.69123 13.4407 6.56737 13.4914C6.44352 13.542 6.331 13.6169 6.23638 13.7115C6.14175 13.8061 6.06692 13.9186 6.01625 14.0425C5.96558 14.1663 5.94008 14.299 5.94124 14.4328C5.94241 14.5667 5.97021 14.6989 6.02302 14.8219C6.07584 14.9448 6.15262 15.056 6.24887 15.149L8.06892 16.969C9.02513 17.9249 9.57265 19.2149 9.59596 20.5667C9.61927 21.9186 9.11657 23.2267 8.19389 24.215L6.33957 26.2043C5.54487 27.0578 5.01646 28.1246 4.81914 29.2739C4.62181 30.4233 4.76414 31.6052 5.22867 32.6749C5.69321 33.7445 6.45975 34.6554 7.43434 35.2958C8.40893 35.9362 9.5492 36.2783 10.7154 36.2801Z" fill="#545454"/>
</svg>
