<svg xmlns="http://www.w3.org/2000/svg" xmlns:xlink="http://www.w3.org/1999/xlink" width="500" zoomAndPan="magnify" viewBox="0 0 375 374.999991" height="500" preserveAspectRatio="xMidYMid meet" version="1.0"><defs><filter x="0%" y="0%" width="100%" height="100%" id="b48141d4b7"><feColorMatrix values="0 0 0 0 1 0 0 0 0 1 0 0 0 0 1 0 0 0 1 0" color-interpolation-filters="sRGB"/></filter><g/><mask id="c83af8ea7a"><g filter="url(#b48141d4b7)"><rect x="-92.5" width="540" fill="#000000" y="-165.499998" height="539.999987" fill-opacity="0.36"/></g></mask><clipPath id="0bec15a00d"><path d="M 0.09375 0.847656 L 99.316406 0.847656 L 99.316406 104.71875 L 0.09375 104.71875 Z M 0.09375 0.847656 " clip-rule="nonzero"/></clipPath><clipPath id="56b8a404e6"><path d="M 49.703125 0.847656 C 22.304688 0.847656 0.09375 24.023438 0.09375 52.609375 C 0.09375 81.195312 22.304688 104.371094 49.703125 104.371094 C 77.105469 104.371094 99.316406 81.195312 99.316406 52.609375 C 99.316406 24.023438 77.105469 0.847656 49.703125 0.847656 Z M 49.703125 0.847656 " clip-rule="nonzero"/></clipPath><clipPath id="24a9969ad5"><path d="M 0.09375 0.847656 L 99.316406 0.847656 L 99.316406 104.441406 L 0.09375 104.441406 Z M 0.09375 0.847656 " clip-rule="nonzero"/></clipPath><clipPath id="c81874964b"><path d="M 49.703125 0.847656 C 22.304688 0.847656 0.09375 24.023438 0.09375 52.609375 C 0.09375 81.195312 22.304688 104.371094 49.703125 104.371094 C 77.105469 104.371094 99.316406 81.195312 99.316406 52.609375 C 99.316406 24.023438 77.105469 0.847656 49.703125 0.847656 Z M 49.703125 0.847656 " clip-rule="nonzero"/></clipPath><clipPath id="a80c2dbebe"><rect x="0" width="100" y="0" height="105"/></clipPath><clipPath id="533d81fb3f"><rect x="0" width="100" y="0" height="105"/></clipPath><mask id="4a8ace0bae"><g filter="url(#b48141d4b7)"><rect x="-92.5" width="540" fill="#000000" y="-165.499998" height="539.999987" fill-opacity="0.36"/></g></mask><clipPath id="5e7f95dced"><path d="M 0.503906 0.847656 L 99.722656 0.847656 L 99.722656 104.71875 L 0.503906 104.71875 Z M 0.503906 0.847656 " clip-rule="nonzero"/></clipPath><clipPath id="fa5140107e"><path d="M 50.113281 0.847656 C 22.714844 0.847656 0.503906 24.023438 0.503906 52.609375 C 0.503906 81.195312 22.714844 104.371094 50.113281 104.371094 C 77.511719 104.371094 99.722656 81.195312 99.722656 52.609375 C 99.722656 24.023438 77.511719 0.847656 50.113281 0.847656 Z M 50.113281 0.847656 " clip-rule="nonzero"/></clipPath><clipPath id="3dec8d9519"><path d="M 0.503906 0.847656 L 99.722656 0.847656 L 99.722656 104.441406 L 0.503906 104.441406 Z M 0.503906 0.847656 " clip-rule="nonzero"/></clipPath><clipPath id="e62eafa8d4"><path d="M 50.113281 0.847656 C 22.714844 0.847656 0.503906 24.023438 0.503906 52.609375 C 0.503906 81.195312 22.714844 104.371094 50.113281 104.371094 C 77.511719 104.371094 99.722656 81.195312 99.722656 52.609375 C 99.722656 24.023438 77.511719 0.847656 50.113281 0.847656 Z M 50.113281 0.847656 " clip-rule="nonzero"/></clipPath><clipPath id="7fed8159ef"><rect x="0" width="100" y="0" height="105"/></clipPath><clipPath id="254f8d76d8"><rect x="0" width="100" y="0" height="105"/></clipPath><clipPath id="413f51ee09"><rect x="0" width="84" y="0" height="185"/></clipPath><clipPath id="42c4885c44"><path d="M 0.320312 0.519531 L 356 0.519531 L 356 208.359375 L 0.320312 208.359375 Z M 0.320312 0.519531 " clip-rule="nonzero"/></clipPath><clipPath id="f985f02ac1"><rect x="0" width="356" y="0" height="209"/></clipPath><clipPath id="c6060e9fa3"><rect x="0" width="356" y="0" height="209"/></clipPath></defs><g transform="matrix(1, 0, 0, 1, 10, 83)"><g clip-path="url(#c6060e9fa3)"><g mask="url(#c83af8ea7a)"><g transform="matrix(1, 0, 0, 1, 211, 48)"><g clip-path="url(#533d81fb3f)"><g clip-path="url(#0bec15a00d)"><g clip-path="url(#56b8a404e6)"><g transform="matrix(1, 0, 0, 1, 0.000000000000028422, 0)"><g clip-path="url(#a80c2dbebe)"><g clip-path="url(#24a9969ad5)"><g clip-path="url(#c81874964b)"><path fill="#afd1ff" d="M 0.09375 0.847656 L 99.316406 0.847656 L 99.316406 104.332031 L 0.09375 104.332031 Z M 0.09375 0.847656 " fill-opacity="1" fill-rule="nonzero"/></g></g></g></g></g></g></g></g></g><g mask="url(#4a8ace0bae)"><g transform="matrix(1, 0, 0, 1, 45, 48)"><g clip-path="url(#254f8d76d8)"><g clip-path="url(#5e7f95dced)"><g clip-path="url(#fa5140107e)"><g transform="matrix(1, 0, 0, 1, -0.000000000000007105, 0)"><g clip-path="url(#7fed8159ef)"><g clip-path="url(#3dec8d9519)"><g clip-path="url(#e62eafa8d4)"><path fill="#afd1ff" d="M 0.503906 0.847656 L 99.722656 0.847656 L 99.722656 104.332031 L 0.503906 104.332031 Z M 0.503906 0.847656 " fill-opacity="1" fill-rule="nonzero"/></g></g></g></g></g></g></g></g></g><g transform="matrix(1, 0, 0, 1, 131, 21)"><g clip-path="url(#413f51ee09)"><g fill="#4371af" fill-opacity="1"><g transform="translate(0.703662, 137.67198)"><g><path d="M 6.9375 -74.40625 L 73.3125 -74.40625 L 73.3125 -50.15625 L 6.9375 -50.15625 Z M 6.9375 -74.40625 "/></g></g></g></g></g><g clip-path="url(#42c4885c44)"><g transform="matrix(1, 0, 0, 1, -0.000000000000001776, 0)"><g clip-path="url(#f985f02ac1)"><g fill="#70a1e2" fill-opacity="1"><g transform="translate(1.789058, 153.796794)"><g><path d="M 88.515625 2.09375 C 75.710938 2.09375 64.472656 -0.0625 54.796875 -4.375 C 45.128906 -8.695312 37.09375 -14.507812 30.6875 -21.8125 C 24.289062 -29.125 19.488281 -37.375 16.28125 -46.5625 C 13.082031 -55.75 11.484375 -65.175781 11.484375 -74.84375 C 11.484375 -84.519531 13.082031 -93.953125 16.28125 -103.140625 C 19.488281 -112.328125 24.289062 -120.570312 30.6875 -127.875 C 37.09375 -135.1875 45.128906 -141 54.796875 -145.3125 C 64.472656 -149.625 75.710938 -151.78125 88.515625 -151.78125 C 101.328125 -151.78125 112.566406 -149.625 122.234375 -145.3125 C 131.910156 -141 139.945312 -135.1875 146.34375 -127.875 C 152.75 -120.570312 157.550781 -112.328125 160.75 -103.140625 C 163.957031 -93.953125 165.5625 -84.519531 165.5625 -74.84375 C 165.5625 -65.175781 163.957031 -55.75 160.75 -46.5625 C 157.550781 -37.375 152.75 -29.125 146.34375 -21.8125 C 139.945312 -14.507812 131.910156 -8.695312 122.234375 -4.375 C 112.566406 -0.0625 101.328125 2.09375 88.515625 2.09375 Z M 88.515625 -28.8125 C 97.015625 -28.8125 104.320312 -30.476562 110.4375 -33.8125 C 116.5625 -37.15625 121.429688 -41.578125 125.046875 -47.078125 C 128.671875 -52.578125 131.109375 -58.597656 132.359375 -65.140625 C 133.617188 -71.679688 133.617188 -78.222656 132.359375 -84.765625 C 131.109375 -91.304688 128.671875 -97.328125 125.046875 -102.828125 C 121.429688 -108.328125 116.5625 -112.742188 110.4375 -116.078125 C 104.320312 -119.421875 97.015625 -121.09375 88.515625 -121.09375 C 80.023438 -121.09375 72.71875 -119.421875 66.59375 -116.078125 C 60.476562 -112.742188 55.609375 -108.328125 51.984375 -102.828125 C 48.367188 -97.328125 45.929688 -91.304688 44.671875 -84.765625 C 43.421875 -78.222656 43.421875 -71.679688 44.671875 -65.140625 C 45.929688 -58.597656 48.367188 -52.578125 51.984375 -47.078125 C 55.609375 -41.578125 60.476562 -37.15625 66.59375 -33.8125 C 72.71875 -30.476562 80.023438 -28.8125 88.515625 -28.8125 Z M 88.515625 -28.8125 "/></g></g></g><g fill="#70a1e2" fill-opacity="1"><g transform="translate(178.626915, 153.796794)"><g><path d="M 88.515625 2.09375 C 75.710938 2.09375 64.472656 -0.0625 54.796875 -4.375 C 45.128906 -8.695312 37.09375 -14.507812 30.6875 -21.8125 C 24.289062 -29.125 19.488281 -37.375 16.28125 -46.5625 C 13.082031 -55.75 11.484375 -65.175781 11.484375 -74.84375 C 11.484375 -84.519531 13.082031 -93.953125 16.28125 -103.140625 C 19.488281 -112.328125 24.289062 -120.570312 30.6875 -127.875 C 37.09375 -135.1875 45.128906 -141 54.796875 -145.3125 C 64.472656 -149.625 75.710938 -151.78125 88.515625 -151.78125 C 101.328125 -151.78125 112.566406 -149.625 122.234375 -145.3125 C 131.910156 -141 139.945312 -135.1875 146.34375 -127.875 C 152.75 -120.570312 157.550781 -112.328125 160.75 -103.140625 C 163.957031 -93.953125 165.5625 -84.519531 165.5625 -74.84375 C 165.5625 -65.175781 163.957031 -55.75 160.75 -46.5625 C 157.550781 -37.375 152.75 -29.125 146.34375 -21.8125 C 139.945312 -14.507812 131.910156 -8.695312 122.234375 -4.375 C 112.566406 -0.0625 101.328125 2.09375 88.515625 2.09375 Z M 88.515625 -28.8125 C 97.015625 -28.8125 104.320312 -30.476562 110.4375 -33.8125 C 116.5625 -37.15625 121.429688 -41.578125 125.046875 -47.078125 C 128.671875 -52.578125 131.109375 -58.597656 132.359375 -65.140625 C 133.617188 -71.679688 133.617188 -78.222656 132.359375 -84.765625 C 131.109375 -91.304688 128.671875 -97.328125 125.046875 -102.828125 C 121.429688 -108.328125 116.5625 -112.742188 110.4375 -116.078125 C 104.320312 -119.421875 97.015625 -121.09375 88.515625 -121.09375 C 80.023438 -121.09375 72.71875 -119.421875 66.59375 -116.078125 C 60.476562 -112.742188 55.609375 -108.328125 51.984375 -102.828125 C 48.367188 -97.328125 45.929688 -91.304688 44.671875 -84.765625 C 43.421875 -78.222656 43.421875 -71.679688 44.671875 -65.140625 C 45.929688 -58.597656 48.367188 -52.578125 51.984375 -47.078125 C 55.609375 -41.578125 60.476562 -37.15625 66.59375 -33.8125 C 72.71875 -30.476562 80.023438 -28.8125 88.515625 -28.8125 Z M 88.515625 -28.8125 "/></g></g></g></g></g></g></g></g></svg>