<svg xmlns="http://www.w3.org/2000/svg" xmlns:xlink="http://www.w3.org/1999/xlink" width="500" zoomAndPan="magnify" viewBox="0 0 375 112.499997" height="150" preserveAspectRatio="xMidYMid meet" version="1.0"><defs><filter x="0%" y="0%" width="100%" height="100%" id="a8a379fe1f"><feColorMatrix values="0 0 0 0 1 0 0 0 0 1 0 0 0 0 1 0 0 0 1 0" color-interpolation-filters="sRGB"/></filter><g/><mask id="aa6ace19f8"><g filter="url(#a8a379fe1f)"><rect x="-86.5" width="540" fill="#000000" y="-47.749999" height="161.999995" fill-opacity="0.36"/></g></mask><clipPath id="5938de5ced"><path d="M 0.769531 0.789062 L 30.457031 0.789062 L 30.457031 30.480469 L 0.769531 30.480469 Z M 0.769531 0.789062 " clip-rule="nonzero"/></clipPath><clipPath id="68c7d6eab9"><path d="M 15.613281 0.789062 C 7.414062 0.789062 0.769531 7.4375 0.769531 15.632812 C 0.769531 23.832031 7.414062 30.480469 15.613281 30.480469 C 23.808594 30.480469 30.457031 23.832031 30.457031 15.632812 C 30.457031 7.4375 23.808594 0.789062 15.613281 0.789062 Z M 15.613281 0.789062 " clip-rule="nonzero"/></clipPath><clipPath id="36e7d84a89"><path d="M 0.769531 0.789062 L 30.457031 0.789062 L 30.457031 30.480469 L 0.769531 30.480469 Z M 0.769531 0.789062 " clip-rule="nonzero"/></clipPath><clipPath id="173bb5d27b"><path d="M 15.613281 0.789062 C 7.414062 0.789062 0.769531 7.4375 0.769531 15.632812 C 0.769531 23.832031 7.414062 30.480469 15.613281 30.480469 C 23.808594 30.480469 30.457031 23.832031 30.457031 15.632812 C 30.457031 7.4375 23.808594 0.789062 15.613281 0.789062 Z M 15.613281 0.789062 " clip-rule="nonzero"/></clipPath><clipPath id="f2cca402d5"><rect x="0" width="31" y="0" height="31"/></clipPath><clipPath id="4050c2be2b"><rect x="0" width="31" y="0" height="31"/></clipPath><mask id="bcd7bddc7c"><g filter="url(#a8a379fe1f)"><rect x="-86.5" width="540" fill="#000000" y="-47.749999" height="161.999995" fill-opacity="0.36"/></g></mask><clipPath id="33c08f41e1"><path d="M 0.195312 0.789062 L 29.882812 0.789062 L 29.882812 30.480469 L 0.195312 30.480469 Z M 0.195312 0.789062 " clip-rule="nonzero"/></clipPath><clipPath id="8d8aa9af19"><path d="M 15.039062 0.789062 C 6.839844 0.789062 0.195312 7.4375 0.195312 15.632812 C 0.195312 23.832031 6.839844 30.480469 15.039062 30.480469 C 23.238281 30.480469 29.882812 23.832031 29.882812 15.632812 C 29.882812 7.4375 23.238281 0.789062 15.039062 0.789062 Z M 15.039062 0.789062 " clip-rule="nonzero"/></clipPath><clipPath id="71435f6e5a"><path d="M 0.195312 0.789062 L 29.882812 0.789062 L 29.882812 30.480469 L 0.195312 30.480469 Z M 0.195312 0.789062 " clip-rule="nonzero"/></clipPath><clipPath id="695dab1586"><path d="M 15.039062 0.789062 C 6.839844 0.789062 0.195312 7.4375 0.195312 15.632812 C 0.195312 23.832031 6.839844 30.480469 15.039062 30.480469 C 23.238281 30.480469 29.882812 23.832031 29.882812 15.632812 C 29.882812 7.4375 23.238281 0.789062 15.039062 0.789062 Z M 15.039062 0.789062 " clip-rule="nonzero"/></clipPath><clipPath id="7e282c1425"><rect x="0" width="30" y="0" height="31"/></clipPath><clipPath id="bdd13d33f2"><rect x="0" width="30" y="0" height="31"/></clipPath><clipPath id="f0b5e6dcc3"><rect x="0" width="367" y="0" height="66"/></clipPath></defs><g transform="matrix(1, 0, 0, 1, 4, 23)"><g clip-path="url(#f0b5e6dcc3)"><g fill="#f252c0" fill-opacity="1"><g transform="translate(1.40538, 48.287054)"><g><path d="M 38.578125 -2.84375 C 36.804688 -1.851562 34.914062 -1.085938 32.90625 -0.546875 C 30.90625 -0.00390625 28.804688 0.265625 26.609375 0.265625 C 22.804688 0.265625 19.445312 -0.378906 16.53125 -1.671875 C 13.625 -2.972656 11.175781 -4.710938 9.1875 -6.890625 C 7.207031 -9.066406 5.707031 -11.523438 4.6875 -14.265625 C 3.675781 -17.015625 3.148438 -19.851562 3.109375 -22.78125 C 3.066406 -25.71875 3.507812 -28.566406 4.4375 -31.328125 C 5.363281 -34.085938 6.796875 -36.597656 8.734375 -38.859375 C 10.679688 -41.128906 13.140625 -42.96875 16.109375 -44.375 C 19.085938 -45.78125 22.585938 -46.546875 26.609375 -46.671875 C 28.460938 -46.753906 30.15625 -46.664062 31.6875 -46.40625 C 33.21875 -46.15625 34.488281 -45.878906 35.5 -45.578125 C 36.519531 -45.273438 37.160156 -45.078125 37.421875 -44.984375 L 36.3125 -35.609375 C 35.40625 -35.992188 34.175781 -36.390625 32.625 -36.796875 C 31.070312 -37.210938 29.066406 -37.375 26.609375 -37.28125 C 23.929688 -37.195312 21.648438 -36.613281 19.765625 -35.53125 C 17.890625 -34.457031 16.398438 -33.078125 15.296875 -31.390625 C 14.203125 -29.710938 13.484375 -27.878906 13.140625 -25.890625 C 12.796875 -23.910156 12.816406 -21.925781 13.203125 -19.9375 C 13.585938 -17.945312 14.351562 -16.117188 15.5 -14.453125 C 16.644531 -12.796875 18.144531 -11.472656 20 -10.484375 C 21.851562 -9.492188 24.054688 -9 26.609375 -9 C 27.035156 -9 27.460938 -9.03125 27.890625 -9.09375 C 28.328125 -9.15625 28.757812 -9.207031 29.1875 -9.25 L 29.1875 -23.171875 L 38.578125 -23.171875 Z M 38.578125 -2.84375 "/></g></g></g><g fill="#f252c0" fill-opacity="1"><g transform="translate(44.974692, 48.287054)"><g><path d="M 29.125 0 L 5.171875 0 L 5.171875 -46.28125 L 28.359375 -46.28125 L 28.359375 -37.03125 L 14.4375 -37.03125 L 14.4375 -27.765625 L 26.609375 -27.765625 L 26.609375 -18.515625 L 14.4375 -18.515625 L 14.4375 -9.25 L 29.125 -9.25 Z M 29.125 0 "/></g></g></g><g fill="#f252c0" fill-opacity="1"><g transform="translate(77.603114, 48.287054)"><g><path d="M 14.4375 -25.1875 L 14.4375 0 L 5.171875 0 L 5.171875 -47.25 L 7.640625 -47.25 L 31 -20.0625 L 31 -46.21875 L 40.328125 -46.21875 L 40.328125 0.96875 L 37.875 0.96875 Z M 14.4375 -25.1875 "/></g></g></g><g fill="#f252c0" fill-opacity="1"><g transform="translate(123.179327, 48.287054)"><g><path d="M 29.125 0 L 5.171875 0 L 5.171875 -46.28125 L 28.359375 -46.28125 L 28.359375 -37.03125 L 14.4375 -37.03125 L 14.4375 -27.765625 L 26.609375 -27.765625 L 26.609375 -18.515625 L 14.4375 -18.515625 L 14.4375 -9.25 L 29.125 -9.25 Z M 29.125 0 "/></g></g></g><g fill="#f252c0" fill-opacity="1"><g transform="translate(155.80775, 48.287054)"><g><path d="M 22.078125 0 L 12.8125 0 L 12.8125 -37.03125 L 1.296875 -37.03125 L 1.296875 -46.21875 L 33.59375 -46.21875 L 33.59375 -37.03125 L 22.078125 -37.03125 Z M 22.078125 0 "/></g></g></g><g fill="#ffffff" fill-opacity="1"><g transform="translate(189.739349, 48.287054)"><g><path d="M 27.453125 0.640625 C 23.472656 0.640625 19.984375 -0.0234375 16.984375 -1.359375 C 13.992188 -2.691406 11.503906 -4.488281 9.515625 -6.75 C 7.523438 -9.019531 6.035156 -11.578125 5.046875 -14.421875 C 4.054688 -17.273438 3.5625 -20.203125 3.5625 -23.203125 C 3.5625 -26.203125 4.054688 -29.125 5.046875 -31.96875 C 6.035156 -34.820312 7.523438 -37.378906 9.515625 -39.640625 C 11.503906 -41.910156 13.992188 -43.710938 16.984375 -45.046875 C 19.984375 -46.390625 23.472656 -47.0625 27.453125 -47.0625 C 31.421875 -47.0625 34.90625 -46.390625 37.90625 -45.046875 C 40.90625 -43.710938 43.394531 -41.910156 45.375 -39.640625 C 47.363281 -37.378906 48.851562 -34.820312 49.84375 -31.96875 C 50.832031 -29.125 51.328125 -26.203125 51.328125 -23.203125 C 51.328125 -20.203125 50.832031 -17.273438 49.84375 -14.421875 C 48.851562 -11.578125 47.363281 -9.019531 45.375 -6.75 C 43.394531 -4.488281 40.90625 -2.691406 37.90625 -1.359375 C 34.90625 -0.0234375 31.421875 0.640625 27.453125 0.640625 Z M 27.453125 -8.9375 C 30.078125 -8.9375 32.335938 -9.453125 34.234375 -10.484375 C 36.140625 -11.523438 37.648438 -12.894531 38.765625 -14.59375 C 39.890625 -16.300781 40.644531 -18.164062 41.03125 -20.1875 C 41.425781 -22.21875 41.425781 -24.25 41.03125 -26.28125 C 40.644531 -28.3125 39.890625 -30.175781 38.765625 -31.875 C 37.648438 -33.582031 36.140625 -34.953125 34.234375 -35.984375 C 32.335938 -37.023438 30.078125 -37.546875 27.453125 -37.546875 C 24.816406 -37.546875 22.546875 -37.023438 20.640625 -35.984375 C 18.742188 -34.953125 17.234375 -33.582031 16.109375 -31.875 C 14.992188 -30.175781 14.238281 -28.3125 13.84375 -26.28125 C 13.457031 -24.25 13.457031 -22.21875 13.84375 -20.1875 C 14.238281 -18.164062 14.992188 -16.300781 16.109375 -14.59375 C 17.234375 -12.894531 18.742188 -11.523438 20.640625 -10.484375 C 22.546875 -9.453125 24.816406 -8.9375 27.453125 -8.9375 Z M 27.453125 -8.9375 "/></g></g></g><g fill="#ffffff" fill-opacity="1"><g transform="translate(244.573232, 48.287054)"><g><path d="M 27.453125 0.640625 C 23.472656 0.640625 19.984375 -0.0234375 16.984375 -1.359375 C 13.992188 -2.691406 11.503906 -4.488281 9.515625 -6.75 C 7.523438 -9.019531 6.035156 -11.578125 5.046875 -14.421875 C 4.054688 -17.273438 3.5625 -20.203125 3.5625 -23.203125 C 3.5625 -26.203125 4.054688 -29.125 5.046875 -31.96875 C 6.035156 -34.820312 7.523438 -37.378906 9.515625 -39.640625 C 11.503906 -41.910156 13.992188 -43.710938 16.984375 -45.046875 C 19.984375 -46.390625 23.472656 -47.0625 27.453125 -47.0625 C 31.421875 -47.0625 34.90625 -46.390625 37.90625 -45.046875 C 40.90625 -43.710938 43.394531 -41.910156 45.375 -39.640625 C 47.363281 -37.378906 48.851562 -34.820312 49.84375 -31.96875 C 50.832031 -29.125 51.328125 -26.203125 51.328125 -23.203125 C 51.328125 -20.203125 50.832031 -17.273438 49.84375 -14.421875 C 48.851562 -11.578125 47.363281 -9.019531 45.375 -6.75 C 43.394531 -4.488281 40.90625 -2.691406 37.90625 -1.359375 C 34.90625 -0.0234375 31.421875 0.640625 27.453125 0.640625 Z M 27.453125 -8.9375 C 30.078125 -8.9375 32.335938 -9.453125 34.234375 -10.484375 C 36.140625 -11.523438 37.648438 -12.894531 38.765625 -14.59375 C 39.890625 -16.300781 40.644531 -18.164062 41.03125 -20.1875 C 41.425781 -22.21875 41.425781 -24.25 41.03125 -26.28125 C 40.644531 -28.3125 39.890625 -30.175781 38.765625 -31.875 C 37.648438 -33.582031 36.140625 -34.953125 34.234375 -35.984375 C 32.335938 -37.023438 30.078125 -37.546875 27.453125 -37.546875 C 24.816406 -37.546875 22.546875 -37.023438 20.640625 -35.984375 C 18.742188 -34.953125 17.234375 -33.582031 16.109375 -31.875 C 14.992188 -30.175781 14.238281 -28.3125 13.84375 -26.28125 C 13.457031 -24.25 13.457031 -22.21875 13.84375 -20.1875 C 14.238281 -18.164062 14.992188 -16.300781 16.109375 -14.59375 C 17.234375 -12.894531 18.742188 -11.523438 20.640625 -10.484375 C 22.546875 -9.453125 24.816406 -8.9375 27.453125 -8.9375 Z M 27.453125 -8.9375 "/></g></g></g><g fill="#f252c0" fill-opacity="1"><g transform="translate(299.418561, 48.287054)"><g><path d="M 5.171875 -46.28125 L 14.4375 -46.28125 L 14.4375 -9.25 L 29.125 -9.25 L 29.125 0 L 5.171875 0 Z M 5.171875 -46.28125 "/></g></g></g><g fill="#f252c0" fill-opacity="1"><g transform="translate(331.334861, 48.287054)"><g><path d="M 3.046875 -2.984375 L 4.203125 -12.6875 C 5.972656 -11.4375 7.734375 -10.539062 9.484375 -10 C 11.234375 -9.457031 12.816406 -9.144531 14.234375 -9.0625 C 15.660156 -8.976562 16.71875 -8.957031 17.40625 -9 C 18.789062 -9.082031 19.96875 -9.566406 20.9375 -10.453125 C 21.90625 -11.335938 22.328125 -12.40625 22.203125 -13.65625 C 22.117188 -15 21.625 -16.015625 20.71875 -16.703125 C 19.8125 -17.390625 18.707031 -17.953125 17.40625 -18.390625 C 14.988281 -19.296875 12.734375 -20.335938 10.640625 -21.515625 C 8.554688 -22.703125 6.875 -24.179688 5.59375 -25.953125 C 4.320312 -27.722656 3.6875 -29.90625 3.6875 -32.5 C 3.6875 -35.082031 4.234375 -37.421875 5.328125 -39.515625 C 6.429688 -41.609375 7.976562 -43.28125 9.96875 -44.53125 C 11.957031 -45.789062 14.222656 -46.484375 16.765625 -46.609375 C 17.972656 -46.691406 19.453125 -46.644531 21.203125 -46.46875 C 22.953125 -46.300781 25.3125 -45.703125 28.28125 -44.671875 L 27.125 -35.734375 C 24.570312 -36.765625 22.539062 -37.351562 21.03125 -37.5 C 19.519531 -37.65625 18.398438 -37.710938 17.671875 -37.671875 C 16.035156 -37.585938 14.835938 -37.023438 14.078125 -35.984375 C 13.328125 -34.953125 12.992188 -33.789062 13.078125 -32.5 C 13.203125 -31.195312 13.757812 -30.210938 14.75 -29.546875 C 15.75 -28.878906 16.914062 -28.304688 18.25 -27.828125 C 20.664062 -26.972656 22.890625 -25.90625 24.921875 -24.625 C 26.953125 -23.351562 28.582031 -21.820312 29.8125 -20.03125 C 31.039062 -18.238281 31.65625 -16.113281 31.65625 -13.65625 C 31.65625 -11.113281 31.09375 -8.804688 29.96875 -6.734375 C 28.84375 -4.660156 27.234375 -3 25.140625 -1.75 C 23.054688 -0.5 20.566406 0.210938 17.671875 0.390625 C 16.804688 0.429688 15.628906 0.394531 14.140625 0.28125 C 12.648438 0.175781 10.957031 -0.117188 9.0625 -0.609375 C 7.164062 -1.109375 5.160156 -1.898438 3.046875 -2.984375 Z M 3.046875 -2.984375 "/></g></g></g><g mask="url(#aa6ace19f8)"><g transform="matrix(1, 0, 0, 1, 256, 9)"><g clip-path="url(#4050c2be2b)"><g clip-path="url(#5938de5ced)"><g clip-path="url(#68c7d6eab9)"><g><g clip-path="url(#f2cca402d5)"><g clip-path="url(#36e7d84a89)"><g clip-path="url(#173bb5d27b)"><path fill="#afd1ff" d="M 0.769531 0.789062 L 30.457031 0.789062 L 30.457031 30.480469 L 0.769531 30.480469 Z M 0.769531 0.789062 " fill-opacity="1" fill-rule="nonzero"/></g></g></g></g></g></g></g></g></g><g mask="url(#bcd7bddc7c)"><g transform="matrix(1, 0, 0, 1, 203, 9)"><g clip-path="url(#bdd13d33f2)"><g clip-path="url(#33c08f41e1)"><g clip-path="url(#8d8aa9af19)"><g><g clip-path="url(#7e282c1425)"><g clip-path="url(#71435f6e5a)"><g clip-path="url(#695dab1586)"><path fill="#afd1ff" d="M 0.195312 0.789062 L 29.882812 0.789062 L 29.882812 30.480469 L 0.195312 30.480469 Z M 0.195312 0.789062 " fill-opacity="1" fill-rule="nonzero"/></g></g></g></g></g></g></g></g></g><g fill="#4371af" fill-opacity="1"><g transform="translate(231.017145, 46.678006)"><g><path d="M 2.15625 -23.078125 L 22.734375 -23.078125 L 22.734375 -15.546875 L 2.15625 -15.546875 Z M 2.15625 -23.078125 "/></g></g></g><g fill="#70a1e2" fill-opacity="1"><g transform="translate(189.013498, 48.287054)"><g><path d="M 27.453125 0.640625 C 23.472656 0.640625 19.984375 -0.0234375 16.984375 -1.359375 C 13.992188 -2.691406 11.503906 -4.488281 9.515625 -6.75 C 7.523438 -9.019531 6.035156 -11.578125 5.046875 -14.421875 C 4.054688 -17.273438 3.5625 -20.203125 3.5625 -23.203125 C 3.5625 -26.203125 4.054688 -29.125 5.046875 -31.96875 C 6.035156 -34.820312 7.523438 -37.378906 9.515625 -39.640625 C 11.503906 -41.910156 13.992188 -43.710938 16.984375 -45.046875 C 19.984375 -46.390625 23.472656 -47.0625 27.453125 -47.0625 C 31.421875 -47.0625 34.90625 -46.390625 37.90625 -45.046875 C 40.90625 -43.710938 43.394531 -41.910156 45.375 -39.640625 C 47.363281 -37.378906 48.851562 -34.820312 49.84375 -31.96875 C 50.832031 -29.125 51.328125 -26.203125 51.328125 -23.203125 C 51.328125 -20.203125 50.832031 -17.273438 49.84375 -14.421875 C 48.851562 -11.578125 47.363281 -9.019531 45.375 -6.75 C 43.394531 -4.488281 40.90625 -2.691406 37.90625 -1.359375 C 34.90625 -0.0234375 31.421875 0.640625 27.453125 0.640625 Z M 27.453125 -8.9375 C 30.078125 -8.9375 32.335938 -9.453125 34.234375 -10.484375 C 36.140625 -11.523438 37.648438 -12.894531 38.765625 -14.59375 C 39.890625 -16.300781 40.644531 -18.164062 41.03125 -20.1875 C 41.425781 -22.21875 41.425781 -24.25 41.03125 -26.28125 C 40.644531 -28.3125 39.890625 -30.175781 38.765625 -31.875 C 37.648438 -33.582031 36.140625 -34.953125 34.234375 -35.984375 C 32.335938 -37.023438 30.078125 -37.546875 27.453125 -37.546875 C 24.816406 -37.546875 22.546875 -37.023438 20.640625 -35.984375 C 18.742188 -34.953125 17.234375 -33.582031 16.109375 -31.875 C 14.992188 -30.175781 14.238281 -28.3125 13.84375 -26.28125 C 13.457031 -24.25 13.457031 -22.21875 13.84375 -20.1875 C 14.238281 -18.164062 14.992188 -16.300781 16.109375 -14.59375 C 17.234375 -12.894531 18.742188 -11.523438 20.640625 -10.484375 C 22.546875 -9.453125 24.816406 -8.9375 27.453125 -8.9375 Z M 27.453125 -8.9375 "/></g></g></g><g fill="#70a1e2" fill-opacity="1"><g transform="translate(243.847381, 48.287054)"><g><path d="M 27.453125 0.640625 C 23.472656 0.640625 19.984375 -0.0234375 16.984375 -1.359375 C 13.992188 -2.691406 11.503906 -4.488281 9.515625 -6.75 C 7.523438 -9.019531 6.035156 -11.578125 5.046875 -14.421875 C 4.054688 -17.273438 3.5625 -20.203125 3.5625 -23.203125 C 3.5625 -26.203125 4.054688 -29.125 5.046875 -31.96875 C 6.035156 -34.820312 7.523438 -37.378906 9.515625 -39.640625 C 11.503906 -41.910156 13.992188 -43.710938 16.984375 -45.046875 C 19.984375 -46.390625 23.472656 -47.0625 27.453125 -47.0625 C 31.421875 -47.0625 34.90625 -46.390625 37.90625 -45.046875 C 40.90625 -43.710938 43.394531 -41.910156 45.375 -39.640625 C 47.363281 -37.378906 48.851562 -34.820312 49.84375 -31.96875 C 50.832031 -29.125 51.328125 -26.203125 51.328125 -23.203125 C 51.328125 -20.203125 50.832031 -17.273438 49.84375 -14.421875 C 48.851562 -11.578125 47.363281 -9.019531 45.375 -6.75 C 43.394531 -4.488281 40.90625 -2.691406 37.90625 -1.359375 C 34.90625 -0.0234375 31.421875 0.640625 27.453125 0.640625 Z M 27.453125 -8.9375 C 30.078125 -8.9375 32.335938 -9.453125 34.234375 -10.484375 C 36.140625 -11.523438 37.648438 -12.894531 38.765625 -14.59375 C 39.890625 -16.300781 40.644531 -18.164062 41.03125 -20.1875 C 41.425781 -22.21875 41.425781 -24.25 41.03125 -26.28125 C 40.644531 -28.3125 39.890625 -30.175781 38.765625 -31.875 C 37.648438 -33.582031 36.140625 -34.953125 34.234375 -35.984375 C 32.335938 -37.023438 30.078125 -37.546875 27.453125 -37.546875 C 24.816406 -37.546875 22.546875 -37.023438 20.640625 -35.984375 C 18.742188 -34.953125 17.234375 -33.582031 16.109375 -31.875 C 14.992188 -30.175781 14.238281 -28.3125 13.84375 -26.28125 C 13.457031 -24.25 13.457031 -22.21875 13.84375 -20.1875 C 14.238281 -18.164062 14.992188 -16.300781 16.109375 -14.59375 C 17.234375 -12.894531 18.742188 -11.523438 20.640625 -10.484375 C 22.546875 -9.453125 24.816406 -8.9375 27.453125 -8.9375 Z M 27.453125 -8.9375 "/></g></g></g></g></g></svg>